<svg xmlns="http://www.w3.org/2000/svg" height="40" viewBox="0 -960 960 960" width="40"><path d="M446.667-364.667h66.666v-82.667H596V-514h-82.667v-82.667h-66.666V-514H364v66.666h82.667v82.667ZM160-200v-66.666h82.667V-564q0-83.783 49.666-148.892Q342-778 422.667-796v-28.667q0-23.666 16.676-39.5Q456.02-880 479.843-880q23.824 0 40.657 15.833 16.833 15.834 16.833 39.5V-796Q618-778 668-712.892 718-647.783 718-564v297.334h82V-200H160Zm320-296.667ZM480-80q-32.333 0-56.167-23.5Q400-127 400-160h160q0 33-23.5 56.5T480-80ZM309.333-266.666h342.001V-564q0-71.334-49.667-121.667t-121-50.333q-71.334 0-121.334 50.333t-50 121.667v297.334Z"/></svg>