<svg xmlns="http://www.w3.org/2000/svg" height="24" viewBox="0 -960 960 960" width="24"><path d="M450.001-365.385h59.998v-80h80v-59.999h-80v-80h-59.998v80h-80v59.999h80v80Zm-280 160v-59.999h80v-290q0-81.462 50.384-144.038 50.385-62.577 129.616-80.269v-28q0-21.154 14.423-35.577 14.422-14.423 35.576-14.423t35.576 14.423q14.423 14.423 14.423 35.577v28q79.231 17.692 129.616 80.269 50.384 62.576 50.384 144.038v290h80v59.999H170.001ZM480-495.384Zm0 407.691q-29.538 0-50.923-21-21.384-21-21.384-51.307h144.614q0 30.307-21 51.307-21 21-51.307 21ZM309.999-265.384h340.002v-290q0-70.616-49.693-120.309Q550.616-725.385 480-725.385q-70.616 0-120.308 49.692Q309.999-626 309.999-555.384v290Z"/></svg>