<svg xmlns="http://www.w3.org/2000/svg" height="24" viewBox="0 -960 960 960" width="24"><path d="M204.616-140.001q-29.827 0-51.067-21.241-21.24-21.24-21.24-51.067v-535.382q0-29.827 21.24-51.067 21.24-21.241 51.067-21.241h347.691V-760H204.616q-5.385 0-8.847 3.462-3.462 3.462-3.462 8.847v535.382q0 5.385 3.462 8.847 3.462 3.462 8.847 3.462h535.383q5.385 0 8.846-3.462 3.462-3.462 3.462-8.847V-560h59.999v347.691q0 29.827-21.241 51.067-21.24 21.241-51.066 21.241H204.616Zm483.077-475.385v-80h-80v-59.998h80v-80h59.998v80h80v59.998h-80v80h-59.998ZM262.309-290.001h423.073L553.845-465.384 441.538-319.231l-79.999-102.306-99.23 131.536ZM192.307-760v560V-760Z"/></svg>