<svg xmlns="http://www.w3.org/2000/svg" height="40" viewBox="0 -960 960 960" width="40"><path d="M186.666-120q-27 0-46.833-19.833T120-186.666V-702q0-15 3.667-26 3.666-11 11.666-20.667l56-73.333q8-9.667 19-13.833 11-4.167 25.257-4.167h488.82q14.257 0 24.923 4.167Q760-831.667 768-822l56.667 73.333q8 9.667 11.666 20.667Q840-717 840-702v515.334q0 27-19.833 46.833T773.334-120H186.666Zm16.667-609.334H756l-35.606-44H238.666l-35.333 44Zm-16.667 66.667v476.001h586.668v-476.001H186.666ZM480-260.001l157.333-157.333L592-462.667 513.333-384v-190h-66.666v190L368-462.667l-45.333 45.333L480-260.001Zm-293.334 73.335h586.668-586.668Z"/></svg>